<mxfile host="app.diagrams.net" agent="Mozilla/5.0 (Macintosh; Intel Mac OS X 10_15_7) AppleWebKit/537.36 (KHTML, like Gecko) Chrome/138.0.0.0 Safari/537.36" version="28.0.7">
  <diagram name="Page-1" id="nNLGSaTDmejs1q0TDHU2">
    <mxGraphModel dx="946" dy="644" grid="1" gridSize="10" guides="1" tooltips="1" connect="1" arrows="1" fold="1" page="1" pageScale="1" pageWidth="827" pageHeight="1169" background="#ffffff" math="0" shadow="0">
      <root>
        <mxCell id="0" />
        <mxCell id="1" parent="0" />
        <mxCell id="Kgw_qx3gTmM1wfe9Yu3x-65" value="" style="sketch=0;points=[[0,0,0],[0.25,0,0],[0.5,0,0],[0.75,0,0],[1,0,0],[0,1,0],[0.25,1,0],[0.5,1,0],[0.75,1,0],[1,1,0],[0,0.25,0],[0,0.5,0],[0,0.75,0],[1,0.25,0],[1,0.5,0],[1,0.75,0]];outlineConnect=0;fontColor=#232F3E;fillColor=#ED7100;strokeColor=#ffffff;dashed=0;verticalLabelPosition=bottom;verticalAlign=top;align=center;html=1;fontSize=12;fontStyle=0;aspect=fixed;shape=mxgraph.aws4.resourceIcon;resIcon=mxgraph.aws4.lambda;" vertex="1" parent="1">
          <mxGeometry x="162.01886095924385" y="501.9712775290873" width="64.34924493711475" height="64.34924493711475" as="geometry" />
        </mxCell>
        <mxCell id="Kgw_qx3gTmM1wfe9Yu3x-63" value="" style="rounded=0;whiteSpace=wrap;html=1;rotation=90;fillColor=#d0cee2;strokeColor=#56517e;" vertex="1" parent="1">
          <mxGeometry x="425.8534245300841" y="310.41440025900226" width="478.4819034090286" height="112.88015482739202" as="geometry" />
        </mxCell>
        <mxCell id="Kgw_qx3gTmM1wfe9Yu3x-62" value="" style="rounded=0;whiteSpace=wrap;html=1;rotation=90;fillColor=#e3c800;fontColor=#000000;strokeColor=#B09500;" vertex="1" parent="1">
          <mxGeometry x="174.050061627067" y="313.50418551887606" width="457.6737647838515" height="112.88015482739202" as="geometry" />
        </mxCell>
        <mxCell id="Kgw_qx3gTmM1wfe9Yu3x-51" value="" style="rounded=0;whiteSpace=wrap;html=1;rotation=90;fillColor=#b1ddf0;strokeColor=#10739e;" vertex="1" parent="1">
          <mxGeometry x="23.76" y="224.51" width="251.57" height="107.95" as="geometry" />
        </mxCell>
        <mxCell id="Kgw_qx3gTmM1wfe9Yu3x-3" value="" style="aspect=fixed;sketch=0;html=1;dashed=0;whitespace=wrap;verticalLabelPosition=bottom;verticalAlign=top;fillColor=#2875E2;strokeColor=#ffffff;points=[[0.005,0.63,0],[0.1,0.2,0],[0.9,0.2,0],[0.5,0,0],[0.995,0.63,0],[0.72,0.99,0],[0.5,1,0],[0.28,0.99,0]];shape=mxgraph.kubernetes.icon2;kubernetesLabel=1;prIcon=user" vertex="1" parent="1">
          <mxGeometry x="124.43" y="197.88" width="45.3" height="43.5" as="geometry" />
        </mxCell>
        <mxCell id="Kgw_qx3gTmM1wfe9Yu3x-17" value="Marketing-User" style="rounded=1;whiteSpace=wrap;html=1;" vertex="1" parent="1">
          <mxGeometry x="101.83940241990653" y="172.8354716828395" width="97.36518423416777" height="17.83096570433333" as="geometry" />
        </mxCell>
        <mxCell id="Kgw_qx3gTmM1wfe9Yu3x-4" value="" style="aspect=fixed;sketch=0;html=1;dashed=0;whitespace=wrap;verticalLabelPosition=bottom;verticalAlign=top;fillColor=#2875E2;strokeColor=#ffffff;points=[[0.005,0.63,0],[0.1,0.2,0],[0.9,0.2,0],[0.5,0,0],[0.995,0.63,0],[0.72,0.99,0],[0.5,1,0],[0.28,0.99,0]];shape=mxgraph.kubernetes.icon2;kubernetesLabel=1;prIcon=user" vertex="1" parent="1">
          <mxGeometry x="122.93" y="340.53" width="48.31" height="46.39" as="geometry" />
        </mxCell>
        <mxCell id="Kgw_qx3gTmM1wfe9Yu3x-21" value="Dev-User" style="rounded=1;whiteSpace=wrap;html=1;" vertex="1" parent="1">
          <mxGeometry x="101.83940241990653" y="313.3702278815427" width="97.36518423416777" height="18.241077915532994" as="geometry" />
        </mxCell>
        <mxCell id="Kgw_qx3gTmM1wfe9Yu3x-40" value="" style="shape=flexArrow;endArrow=classic;html=1;rounded=0;width=9;endSize=7.09;fillColor=#6a00ff;strokeColor=#3700CC;exitX=0.25;exitY=0;exitDx=0;exitDy=0;" edge="1" parent="1" source="Kgw_qx3gTmM1wfe9Yu3x-51">
          <mxGeometry width="50" height="50" relative="1" as="geometry">
            <mxPoint x="211.54762350090786" y="215.66002871890902" as="sourcePoint" />
            <mxPoint x="272.87" y="215.95" as="targetPoint" />
            <Array as="points">
              <mxPoint x="221.28414192432462" y="215.21425457630073" />
              <mxPoint x="262.87" y="215.95" />
            </Array>
          </mxGeometry>
        </mxCell>
        <mxCell id="Kgw_qx3gTmM1wfe9Yu3x-43" value="" style="sketch=0;points=[[0,0,0],[0.25,0,0],[0.5,0,0],[0.75,0,0],[1,0,0],[0,1,0],[0.25,1,0],[0.5,1,0],[0.75,1,0],[1,1,0],[0,0.25,0],[0,0.5,0],[0,0.75,0],[1,0.25,0],[1,0.5,0],[1,0.75,0]];outlineConnect=0;fontColor=#232F3E;fillColor=#7AA116;strokeColor=#ffffff;dashed=0;verticalLabelPosition=bottom;verticalAlign=top;align=center;html=1;fontSize=12;fontStyle=0;aspect=fixed;shape=mxgraph.aws4.resourceIcon;resIcon=mxgraph.aws4.s3;" vertex="1" parent="1">
          <mxGeometry x="638.6940966995509" y="186.51121877201322" width="52.204210006884544" height="52.204210006884544" as="geometry" />
        </mxCell>
        <mxCell id="Kgw_qx3gTmM1wfe9Yu3x-44" value="" style="sketch=0;points=[[0,0,0],[0.25,0,0],[0.5,0,0],[0.75,0,0],[1,0,0],[0,1,0],[0.25,1,0],[0.5,1,0],[0.75,1,0],[1,1,0],[0,0.25,0],[0,0.5,0],[0,0.75,0],[1,0.25,0],[1,0.5,0],[1,0.75,0]];outlineConnect=0;fontColor=#232F3E;fillColor=#7AA116;strokeColor=#ffffff;dashed=0;verticalLabelPosition=bottom;verticalAlign=top;align=center;html=1;fontSize=12;fontStyle=0;aspect=fixed;shape=mxgraph.aws4.resourceIcon;resIcon=mxgraph.aws4.s3;" vertex="1" parent="1">
          <mxGeometry x="638.6940966995509" y="322.0768095475206" width="52.204210006884544" height="52.204210006884544" as="geometry" />
        </mxCell>
        <mxCell id="Kgw_qx3gTmM1wfe9Yu3x-45" value="S3 bucket Marketing" style="rounded=1;whiteSpace=wrap;html=1;" vertex="1" parent="1">
          <mxGeometry x="621.2826603091912" y="144.3861659015757" width="87.62866581075097" height="28.449305781263835" as="geometry" />
        </mxCell>
        <mxCell id="Kgw_qx3gTmM1wfe9Yu3x-46" value="S3 bucket Dev" style="rounded=1;whiteSpace=wrap;html=1;" vertex="1" parent="1">
          <mxGeometry x="621.2826603091912" y="284.92092210027886" width="87.62866581075097" height="28.449305781263835" as="geometry" />
        </mxCell>
        <mxCell id="Kgw_qx3gTmM1wfe9Yu3x-47" value="" style="shape=flexArrow;endArrow=classic;html=1;rounded=0;width=9;endSize=7.09;fillColor=#6a00ff;strokeColor=#3700CC;" edge="1" parent="1">
          <mxGeometry width="50" height="50" relative="1" as="geometry">
            <mxPoint x="491.30013935657763" y="215.26425457630074" as="sourcePoint" />
            <mxPoint x="617.8748788609956" y="215.71002871890903" as="targetPoint" />
            <Array as="points">
              <mxPoint x="530.2462130502447" y="215.26425457630074" />
            </Array>
          </mxGeometry>
        </mxCell>
        <mxCell id="Kgw_qx3gTmM1wfe9Yu3x-49" value="" style="shape=flexArrow;endArrow=classic;html=1;rounded=0;width=9;endSize=7.09;fillColor=#6a00ff;strokeColor=#3700CC;" edge="1" parent="1">
          <mxGeometry width="50" height="50" relative="1" as="geometry">
            <mxPoint x="491.30013935657763" y="357.91198021096733" as="sourcePoint" />
            <mxPoint x="617.8748788609956" y="358.3577543535757" as="targetPoint" />
            <Array as="points">
              <mxPoint x="530.2462130502447" y="357.91198021096733" />
            </Array>
          </mxGeometry>
        </mxCell>
        <mxCell id="Kgw_qx3gTmM1wfe9Yu3x-52" value="USERS" style="rounded=1;whiteSpace=wrap;html=1;fillColor=#1ba1e2;fontColor=#ffffff;strokeColor=#006EAF;" vertex="1" parent="1">
          <mxGeometry x="98.40224625893012" y="126.55444558520159" width="97.36518423416777" height="17.83096570433333" as="geometry" />
        </mxCell>
        <mxCell id="Kgw_qx3gTmM1wfe9Yu3x-27" value="AIM&lt;div&gt;POLICY/RÃ”LES&lt;/div&gt;" style="rounded=1;whiteSpace=wrap;html=1;fillColor=#e51400;fontColor=#ffffff;strokeColor=#B20000;" vertex="1" parent="1">
          <mxGeometry x="352.5509454254697" y="99.8072424166608" width="102.23344344587612" height="26.746448556499995" as="geometry" />
        </mxCell>
        <mxCell id="Kgw_qx3gTmM1wfe9Yu3x-32" value="MarketingS3-READ-POLICY" style="rounded=1;whiteSpace=wrap;html=1;fillColor=#a20025;fontColor=#ffffff;strokeColor=#6F0000;" vertex="1" parent="1">
          <mxGeometry x="325.77932615849227" y="197.8790630145757" width="155.78429477466835" height="35.66193140866666" as="geometry" />
        </mxCell>
        <mxCell id="Kgw_qx3gTmM1wfe9Yu3x-31" value="DevS3-READ-WRITE-POLICY" style="rounded=1;whiteSpace=wrap;html=1;fillColor=#a20025;fontColor=#ffffff;strokeColor=#6F0000;" vertex="1" parent="1">
          <mxGeometry x="325.77932615849227" y="340.52678864924235" width="155.78429477466835" height="35.66193140866666" as="geometry" />
        </mxCell>
        <mxCell id="Kgw_qx3gTmM1wfe9Yu3x-64" value="SERVICES AWS" style="rounded=1;whiteSpace=wrap;html=1;fillColor=#647687;fontColor=#ffffff;strokeColor=#314354;" vertex="1" parent="1">
          <mxGeometry x="613.9802714916289" y="90" width="102.23344344587612" height="26.746448556499995" as="geometry" />
        </mxCell>
        <mxCell id="Kgw_qx3gTmM1wfe9Yu3x-67" value="" style="shape=flexArrow;endArrow=classic;html=1;rounded=0;width=9;endSize=7.09;fillColor=#6a00ff;strokeColor=#3700CC;" edge="1" parent="1">
          <mxGeometry width="50" height="50" relative="1" as="geometry">
            <mxPoint x="238.58974826440337" y="535.2766726894018" as="sourcePoint" />
            <mxPoint x="323.1741913249716" y="535.3255377215575" as="targetPoint" />
            <Array as="points">
              <mxPoint x="248.32626668782012" y="534.8308985467936" />
            </Array>
          </mxGeometry>
        </mxCell>
        <mxCell id="Kgw_qx3gTmM1wfe9Yu3x-68" value="LambdaS3-ReaderRole" style="rounded=1;whiteSpace=wrap;html=1;fillColor=#a20025;fontColor=#ffffff;strokeColor=#6F0000;" vertex="1" parent="1">
          <mxGeometry x="325.77527482224053" y="517.4888657231205" width="155.78429477466835" height="35.66193140866666" as="geometry" />
        </mxCell>
        <mxCell id="Kgw_qx3gTmM1wfe9Yu3x-72" value="" style="shape=flexArrow;endArrow=classic;html=1;rounded=0;width=9;endSize=7.09;fillColor=#6a00ff;strokeColor=#3700CC;" edge="1" parent="1">
          <mxGeometry width="50" height="50" relative="1" as="geometry">
            <mxPoint x="487.40684656251915" y="534.8308985467936" as="sourcePoint" />
            <mxPoint x="613.9815860669372" y="535.2766726894018" as="targetPoint" />
            <Array as="points">
              <mxPoint x="526.3529202561863" y="534.8308985467936" />
            </Array>
          </mxGeometry>
        </mxCell>
        <mxCell id="Kgw_qx3gTmM1wfe9Yu3x-73" value="" style="sketch=0;points=[[0,0,0],[0.25,0,0],[0.5,0,0],[0.75,0,0],[1,0,0],[0,1,0],[0.25,1,0],[0.5,1,0],[0.75,1,0],[1,1,0],[0,0.25,0],[0,0.5,0],[0,0.75,0],[1,0.25,0],[1,0.5,0],[1,0.75,0]];outlineConnect=0;fontColor=#232F3E;fillColor=#7AA116;strokeColor=#ffffff;dashed=0;verticalLabelPosition=bottom;verticalAlign=top;align=center;html=1;fontSize=12;fontStyle=0;aspect=fixed;shape=mxgraph.aws4.resourceIcon;resIcon=mxgraph.aws4.s3;" vertex="1" parent="1">
          <mxGeometry x="638.691777155688" y="531.3978038136004" width="52.204210006884544" height="52.204210006884544" as="geometry" />
        </mxCell>
        <mxCell id="Kgw_qx3gTmM1wfe9Yu3x-74" value="S3 (Files.txt) Dev-bucket" style="rounded=1;whiteSpace=wrap;html=1;" vertex="1" parent="1">
          <mxGeometry x="621.2814716546775" y="489.0432236480912" width="87.62866581075097" height="28.449305781263835" as="geometry" />
        </mxCell>
        <mxCell id="Kgw_qx3gTmM1wfe9Yu3x-113" value="Function Lambda" style="rounded=1;whiteSpace=wrap;html=1;" vertex="1" parent="1">
          <mxGeometry x="145.88369707428987" y="570.6376948977162" width="97.36518423416777" height="18.241077915532994" as="geometry" />
        </mxCell>
        <mxCell id="Kgw_qx3gTmM1wfe9Yu3x-120" value="" style="aspect=fixed;sketch=0;html=1;dashed=0;whitespace=wrap;verticalLabelPosition=bottom;verticalAlign=top;fillColor=#2875E2;strokeColor=#ffffff;points=[[0.005,0.63,0],[0.1,0.2,0],[0.9,0.2,0],[0.5,0,0],[0.995,0.63,0],[0.72,0.99,0],[0.5,1,0],[0.28,0.99,0]];shape=mxgraph.kubernetes.icon2;prIcon=c_role" vertex="1" parent="1">
          <mxGeometry x="272.86999999999995" y="188.61" width="50" height="48" as="geometry" />
        </mxCell>
        <mxCell id="Kgw_qx3gTmM1wfe9Yu3x-122" value="" style="sketch=0;outlineConnect=0;fontColor=#232F3E;gradientColor=none;fillColor=#DD344C;strokeColor=none;dashed=0;verticalLabelPosition=bottom;verticalAlign=top;align=center;html=1;fontSize=12;fontStyle=0;aspect=fixed;pointerEvents=1;shape=mxgraph.aws4.identity_access_management_iam_roles_anywhere;" vertex="1" parent="1">
          <mxGeometry x="385.85" y="150" width="41.71" height="41.71" as="geometry" />
        </mxCell>
        <mxCell id="Kgw_qx3gTmM1wfe9Yu3x-123" value="" style="sketch=0;outlineConnect=0;fontColor=#232F3E;gradientColor=none;fillColor=#DD344C;strokeColor=none;dashed=0;verticalLabelPosition=bottom;verticalAlign=top;align=center;html=1;fontSize=12;fontStyle=0;aspect=fixed;pointerEvents=1;shape=mxgraph.aws4.identity_access_management_iam_roles_anywhere;" vertex="1" parent="1">
          <mxGeometry x="385.84999999999997" y="289.90000000000003" width="41.71" height="41.71" as="geometry" />
        </mxCell>
        <mxCell id="Kgw_qx3gTmM1wfe9Yu3x-124" value="" style="sketch=0;outlineConnect=0;fontColor=#232F3E;gradientColor=none;fillColor=#DD344C;strokeColor=none;dashed=0;verticalLabelPosition=bottom;verticalAlign=top;align=center;html=1;fontSize=12;fontStyle=0;aspect=fixed;pointerEvents=1;shape=mxgraph.aws4.identity_access_management_iam_roles_anywhere;" vertex="1" parent="1">
          <mxGeometry x="385.85" y="470" width="41.71" height="41.71" as="geometry" />
        </mxCell>
        <mxCell id="Kgw_qx3gTmM1wfe9Yu3x-125" value="" style="shape=flexArrow;endArrow=classic;html=1;rounded=0;width=9;endSize=7.09;fillColor=#6a00ff;strokeColor=#3700CC;exitX=0.818;exitY=-0.004;exitDx=0;exitDy=0;exitPerimeter=0;" edge="1" parent="1" source="Kgw_qx3gTmM1wfe9Yu3x-51">
          <mxGeometry width="50" height="50" relative="1" as="geometry">
            <mxPoint x="211.55" y="358.3057741426083" as="sourcePoint" />
            <mxPoint x="272.87237649909207" y="358.59574542369927" as="targetPoint" />
            <Array as="points">
              <mxPoint x="221.28651842341677" y="357.86" />
            </Array>
          </mxGeometry>
        </mxCell>
        <mxCell id="Kgw_qx3gTmM1wfe9Yu3x-126" value="" style="aspect=fixed;sketch=0;html=1;dashed=0;whitespace=wrap;verticalLabelPosition=bottom;verticalAlign=top;fillColor=#2875E2;strokeColor=#ffffff;points=[[0.005,0.63,0],[0.1,0.2,0],[0.9,0.2,0],[0.5,0,0],[0.995,0.63,0],[0.72,0.99,0],[0.5,1,0],[0.28,0.99,0]];shape=mxgraph.kubernetes.icon2;prIcon=c_role" vertex="1" parent="1">
          <mxGeometry x="272.87" y="328.19" width="50" height="48" as="geometry" />
        </mxCell>
        <mxCell id="Kgw_qx3gTmM1wfe9Yu3x-128" value="Least Privilege" style="rounded=1;whiteSpace=wrap;html=1;" vertex="1" parent="1">
          <mxGeometry x="257.56" y="306.11" width="80.62" height="22.08" as="geometry" />
        </mxCell>
        <mxCell id="Kgw_qx3gTmM1wfe9Yu3x-130" value="Least Privilege" style="rounded=1;whiteSpace=wrap;html=1;" vertex="1" parent="1">
          <mxGeometry x="257.56" y="164.43" width="80.62" height="22.08" as="geometry" />
        </mxCell>
      </root>
    </mxGraphModel>
  </diagram>
</mxfile>
